<?xml version="1.0" encoding="utf-8"?>
<!-- Generator: Adobe Illustrator 19.2.0, SVG Export Plug-In . SVG Version: 6.00 Build 0)  -->
<svg version="1.1" baseProfile="tiny" id="Слой_1"
	 xmlns="http://www.w3.org/2000/svg" xmlns:xlink="http://www.w3.org/1999/xlink" x="0px" y="0px" viewBox="0 0 768 768"
	 xml:space="preserve">
<g>
	<path fill="none" d="M385,769c-126.5,0-253,0-379.5,0.1c-3.7,0-4.6-0.8-4.6-4.6c0.1-253,0.1-506,0-759c0-3.7,0.8-4.6,4.6-4.6
		c253,0.1,506,0.1,759,0c3.7,0,4.6,0.8,4.6,4.6c-0.1,253-0.1,506,0,759c0,3.7-0.8,4.6-4.6,4.6C638,769,511.5,769,385,769z
		 M659,536.2c-3.9-1.6-6.7-4.8-9.6-7.5c-15.9-14.9-31.1-30.4-40.1-50.8c-3-6.9-6.5-13.6-8.9-20.9c-2.1-6.5-3.7-13-5.1-19.7
		c-1.6-7.5-3.2-15-3.2-22.6c0-7.2,0-14.5,0.6-21.8c0.8-8.8,1.5-17.6,3.5-26.2c5.9-25.5,18.1-47.9,35.7-67.1
		c11.3-12.4,24.6-22.5,38.7-31.4c3.3-2.1,3.6-3,1.4-5.8c-7.5-9.7-15.4-19-24.9-27.1c-12.6-10.7-26-19.6-41.2-26
		c-30.5-12.8-62.1-19.6-95.4-16.6c-14.8,1.3-29,4.7-43.1,8.9c-16.5,4.9-32.4,11.4-48.7,16.8c-8.5,2.9-17.1,6-26,7.2
		c-9.9,1.3-19.1-2.9-28.3-5.7c-18.4-5.6-36-13.5-54.6-18.7c-14.1-4-28.2-7.3-43-7.5c-12.7-0.2-25.1,1.4-37.5,4
		c-19.9,4.1-38.5,11.4-55.8,22c-16.4,10-31.2,21.8-43.7,36.5c-9.5,11.1-18,22.9-24.9,35.8c-11.9,22-19.9,45.1-24.2,69.9
		c-2.6,14.9-3.5,29.8-4.6,44.8c-0.6,7.9,0,15.8,0.7,23.8c0.7,8.3,1.2,16.7,2.1,25c1.6,16,4.5,31.8,8.2,47.4
		c7.7,32.9,19.2,64.6,33.7,95.1c11.3,23.8,24.9,46.2,40.4,67.5c10.9,15,22.3,29.7,34.7,43.5c8,8.9,17.2,16.7,26.8,24
		c20.5,15.6,43.4,21.2,68.5,16.6c16.9-3.1,33-9.5,48.9-15.8c16.5-6.5,33.6-10.7,51.2-11.9c19.1-1.3,37.7,1.9,55.8,7.8
		c19,6.2,37.2,15.1,57.1,18.6c13,2.3,26.1,2.8,39.2-0.3c8.2-1.9,15.7-5.4,23.3-9.1c7.6-3.7,13.7-9.3,20.2-14.3
		c6.4-4.9,11.2-11.9,17.3-17.2c3.9-3.4,7.4-7.4,10.2-11.1c6.6-9.1,13.6-18,20.2-27c7.2-9.7,14.3-19.5,20.4-29.9
		c7.2-12.2,14.3-24.5,20.1-37.6c5.4-12.2,10.2-24.7,15.4-37c3.6-8.7,3-9.5-5.8-14.3c-3.8-2.1-8.3-2.8-11.5-5.9
		C668.4,541.9,664.4,537.9,659,536.2z M394.8,193c5.9,0.3,12.7-0.8,19.5-2c14.8-2.6,28.4-8.3,41.1-16c19.9-12,36.3-28.2,50.5-46.5
		c10.7-13.8,19.3-28.9,25.1-45.4c6.4-18.2,9.7-36.9,8.1-56.3c-0.7-8.2-1.5-9.2-9.7-7.8c-17.9,3-35.1,8.2-51.2,16.5
		c-19.4,10-37.3,22.2-51.7,39.2c-9.8,11.6-18.6,23.8-25.4,37.2c-11.4,22.7-17.9,46.6-16.2,72.3C385.5,193,385.1,193,394.8,193z"/>
	<path fill="#ffffff" d="M673,544.9c3.2,3.2,7.7,3.9,11.5,5.9c8.8,4.8,9.4,5.6,5.8,14.3c-5.2,12.3-10,24.8-15.4,37
		c-5.8,13.1-12.9,25.4-20.1,37.6c-6.1,10.4-13.2,20.2-20.4,29.9c-6.7,9-13.6,17.9-20.2,27c-2.8,3.8-6.3,7.8-10.2,11.1
		c-6.1,5.3-10.9,12.3-17.3,17.2c-6.5,5-12.7,10.5-20.2,14.3c-7.6,3.7-15,7.2-23.3,9.1c-13.1,3-26.1,2.5-39.2,0.3
		c-19.9-3.5-38.1-12.4-57.1-18.6c-18.2-5.9-36.8-9.2-55.8-7.8c-17.6,1.2-34.7,5.4-51.2,11.9c-16,6.3-32,12.7-48.9,15.8
		c-25.1,4.6-48-1.1-68.5-16.6c-9.6-7.3-18.7-15.1-26.8-24c-12.4-13.8-23.8-28.4-34.7-43.5c-15.5-21.3-29.1-43.7-40.4-67.5
		C106.2,567.6,94.8,536,87,503c-3.7-15.6-6.6-31.4-8.2-47.4c-0.8-8.3-1.4-16.7-2.1-25c-0.7-7.9-1.2-15.9-0.7-23.8
		c1.1-15,2-29.9,4.6-44.8c4.3-24.7,12.3-47.9,24.2-69.9c7-12.9,15.4-24.6,24.9-35.8c12.5-14.7,27.4-26.5,43.7-36.5
		c17.3-10.5,35.9-17.9,55.8-22c12.4-2.5,24.8-4.2,37.5-4c14.8,0.2,28.9,3.5,43,7.5c18.5,5.2,36.2,13.1,54.6,18.7
		c9.3,2.8,18.5,7,28.3,5.7c8.9-1.2,17.4-4.3,26-7.2c16.3-5.4,32.2-11.9,48.7-16.8c14.1-4.2,28.3-7.6,43.1-8.9
		c33.3-3,64.9,3.7,95.4,16.6c15.2,6.4,28.7,15.3,41.2,26c9.5,8.1,17.4,17.3,24.9,27.1c2.2,2.8,1.9,3.7-1.4,5.8
		c-14.2,8.9-27.4,19-38.7,31.4c-17.6,19.3-29.8,41.7-35.7,67.1c-2,8.5-2.7,17.4-3.5,26.2c-0.6,7.3-0.6,14.5-0.6,21.8
		c0,7.6,1.5,15.1,3.2,22.6c1.4,6.7,3,13.2,5.1,19.7c2.4,7.2,5.9,13.9,8.9,20.9c9,20.4,24.2,35.9,40.1,50.8c2.9,2.7,5.7,5.9,9.6,7.5
		c3.2,4.9,8.2,7.3,13.4,9.4C672.5,545.6,672.8,545.1,673,544.9z"/>
	<path fill="#FFFFFF" d="M394.8,193c-9.7,0-9.3,0-9.9-8.7c-1.7-25.7,4.8-49.6,16.2-72.3c6.8-13.5,15.6-25.6,25.4-37.2
		c14.4-17,32.2-29.2,51.7-39.2c16.1-8.3,33.3-13.6,51.2-16.5c8.2-1.4,9.1-0.4,9.7,7.8c1.6,19.4-1.7,38.1-8.1,56.3
		c-5.8,16.5-14.4,31.6-25.1,45.4c-14.2,18.3-30.6,34.4-50.5,46.5c-12.7,7.7-26.4,13.4-41.1,16C407.5,192.2,400.7,193.3,394.8,193z"
		/>
	<path fill="#FFFFFF" d="M673,544.9c-0.2,0.2-0.5,0.7-0.6,0.7c-5.2-2.1-10.2-4.5-13.4-9.4C664.4,537.9,668.4,541.9,673,544.9z"/>
</g>
</svg>
