<?xml version="1.0" encoding="utf-8"?>
<!-- Generator: Adobe Illustrator 19.2.0, SVG Export Plug-In . SVG Version: 6.00 Build 0)  -->
<svg version="1.1" baseProfile="tiny" id="Слой_2"
	 xmlns="http://www.w3.org/2000/svg" xmlns:xlink="http://www.w3.org/1999/xlink" x="0px" y="0px" viewBox="0 0 73 78"
	 xml:space="preserve">
<path display="none" fill="#685897" d="M0,11.8c0-0.1,0-0.1,0-0.1C0.2,10.7,2.9,0,11.6,0c9.1,0,19.1,0,19.1,0h14.4h12.5h3.3
	c0,0,0.1,0,0.1,0c0.9,0.2,12,2.6,12,11.8v53.6c0,0.1-0.1,0.2-0.1,0.3C73.4,71.1,67,78,59.7,78H12.2c-0.1,0-0.1,0-0.2,0
	c-1.1-0.4-12-4.1-12-12.1V11.8z"/>
<path fill="#685897" d="M73,10v58c0,5.5-4.5,10-10,10H10C4.5,78,0,73.5,0,68V10C0,4.5,4.5,0,10,0h53C68.5,0,73,4.5,73,10z"/>
<path fill="#FFFFFF" d="M26.9,30.9v-14c0,0,0.2-1.7,2-1.9c1.8-0.2,2.3,0,2.3,0l31.9,22c0,0,1.8,1.4,0,2.7c-1.8,1.3-30,20.3-30,20.3
	c-0.1,0-0.7,0.6-1.9,1.1c-1.2,0.5-1.7,1-3,0.2c-1.1-0.7-0.9,0.1-1.3-2.1c-0.4-2,0-13.1,0-13.1L15.1,46v-3l11.8,0l0-2.9H9.2v-2.9
	L27.1,37l0-3L14.9,34l0-3H26.9z"/>
<path fill="#685897" d="M33.1,30.8v-7.4c0,0-0.1-0.9,0.8,0C34.8,24.3,54,37.2,54,37.2s0.8,0.3,1,1c0.2,0.7,0.2,0.3,0,0.9
	c-0.2,0.6-20.5,14.5-20.5,14.5s-1.6,1.5-1.5,0.6s0-8,0-8H40l0-3.2h-7.1v-3l12.6,0l0-2.9l-12.3,0L33,34h6.9L40,31h-7L33.1,30.8z"/>
<path fill="#685897" d="M84.8,11.4"/>
</svg>
