<?xml version="1.0" encoding="utf-8"?>
<!-- Generator: Adobe Illustrator 19.2.0, SVG Export Plug-In . SVG Version: 6.00 Build 0)  -->
<svg version="1.1" baseProfile="tiny" id="Слой_1"
	 xmlns="http://www.w3.org/2000/svg" xmlns:xlink="http://www.w3.org/1999/xlink" x="0px" y="0px" viewBox="0 0 137 24"
	 xml:space="preserve">
<g id="Фигура_1">
	<path fill="#FFFFFF" d="M25,11L10.6,0.3C10.2,0,9.7,0,9.2,0.2C8.8,0.5,8.5,0.9,8.5,1.4l0,6.6H3.7C3.3,8,3,8.4,3,8.9
		c0,0.5,0.3,0.9,0.8,0.9h4.8l0,1.4H0.8C0.3,11.1,0,11.5,0,12s0.3,0.9,0.8,0.9h7.7l0,1.4H3.7c-0.4,0-0.8,0.4-0.8,0.9
		C3,15.7,3.3,16,3.7,16h4.8l0,6.6c0,0.5,0.3,1,0.7,1.2C9.4,24,9.6,24,9.8,24c0.3,0,0.5-0.1,0.8-0.3L25,13.2c0.3-0.3,0.5-0.7,0.5-1.1
		C25.5,11.6,25.3,11.2,25,11z M11.2,20.1V16h2.6c0.4,0,0.8-0.4,0.8-0.9c0-0.5-0.3-0.9-0.8-0.9h-2.6l0-1.4h5.1c0.4,0,0.8-0.4,0.8-0.9
		s-0.3-0.9-0.8-0.9h-5.2l0-1.4h2.6c0.4,0,0.8-0.4,0.8-0.9c0-0.5-0.3-0.9-0.8-0.9h-2.6l0-4L22,12L11.2,20.1z M40.2,12.4
		c-0.3-0.4-0.8-0.7-1.3-1c-0.5-0.3-1.1-0.6-1.8-0.9c-0.3-0.1-0.6-0.3-0.9-0.4c-0.3-0.1-0.6-0.3-0.9-0.5c-0.3-0.2-0.5-0.4-0.7-0.7
		c-0.2-0.2-0.3-0.5-0.3-0.8c0-0.2,0-0.4,0.1-0.6c0.1-0.2,0.2-0.4,0.3-0.5c0.1-0.2,0.3-0.3,0.5-0.4c0.4-0.2,0.9-0.2,1.4,0
		c0.2,0.1,0.5,0.2,0.7,0.3c0.2,0.1,0.4,0.2,0.6,0.3c0.2,0.1,0.4,0.2,0.5,0.3c0.1,0.1,0.3,0.2,0.5,0.2c0.2,0,0.4,0,0.6,0
		c0.2,0,0.4-0.1,0.6-0.2c0.2-0.1,0.3-0.3,0.5-0.5c0.2-0.4,0.3-0.8,0.1-1.3c-0.2-0.4-0.5-0.8-0.9-1.1c-0.4-0.3-0.9-0.6-1.6-0.8
		c-0.6-0.2-1.3-0.3-2-0.4l-0.1,0c-0.6,0-1.2,0.1-1.8,0.3c-0.6,0.2-1.2,0.5-1.7,0.9c-0.5,0.4-0.9,0.9-1.2,1.5C31,6.5,30.8,7.2,30.8,8
		c0,0.7,0.1,1.4,0.4,1.9c0.3,0.5,0.6,1,1,1.4c0.4,0.4,0.9,0.7,1.5,1c0.6,0.3,1.2,0.5,1.8,0.8c0.2,0.1,0.5,0.2,0.7,0.3
		c0.3,0.1,0.5,0.3,0.7,0.5c0.2,0.2,0.4,0.4,0.6,0.7c0.1,0.2,0.2,0.5,0.2,0.9c0,0.4-0.1,0.7-0.2,0.9c-0.1,0.3-0.3,0.5-0.5,0.7
		c-0.2,0.2-0.4,0.3-0.7,0.4c-0.6,0.2-1.2,0.2-1.8,0c-0.3-0.1-0.6-0.2-0.8-0.3c-0.3-0.1-0.5-0.3-0.8-0.5c-0.2-0.2-0.5-0.3-0.7-0.5
		c-0.3-0.2-0.6-0.3-1-0.2c-0.4,0-0.7,0.3-0.9,0.7c-0.1,0.2-0.2,0.5-0.2,0.7c0,0.3,0,0.6,0.2,0.9c0.1,0.3,0.3,0.6,0.5,0.8
		c0.3,0.3,0.6,0.5,1,0.7c0.4,0.2,1,0.5,1.6,0.7c0.5,0.2,1.1,0.3,1.7,0.3c0.1,0,0.2,0,0.3,0c1.9-0.1,3.3-0.6,4.3-1.6
		c0.9-1,1.4-2.3,1.5-3.9c0-0.6-0.1-1.1-0.2-1.6C40.8,13.2,40.5,12.7,40.2,12.4z M54.7,3.5c-0.6,0-1.1,0.2-1.3,0.5
		c-0.2,0.3-0.4,0.6-0.4,1v8.6c0,0.7,0,1.3-0.1,1.8c-0.1,0.5-0.2,0.9-0.5,1.2c-0.2,0.3-0.5,0.6-0.9,0.8c-0.4,0.2-0.9,0.3-1.5,0.3
		c-0.6,0-1.2-0.1-1.6-0.3c-0.4-0.2-0.7-0.4-0.9-0.8c-0.2-0.3-0.4-0.8-0.5-1.3c-0.1-0.5-0.2-1.1-0.2-1.7V4.9c0-0.4-0.1-0.7-0.4-1
		c-0.3-0.3-0.7-0.4-1.3-0.4c-0.6,0-1,0.2-1.3,0.5c-0.3,0.3-0.4,0.6-0.4,1v10c0,1,0.2,1.8,0.6,2.6c0.4,0.7,0.9,1.3,1.5,1.8
		c0.6,0.5,1.3,0.8,2.1,1.1c0.8,0.2,1.5,0.3,2.3,0.3c0.8,0,1.6-0.1,2.4-0.3c0.8-0.2,1.5-0.6,2.1-1.1c0.6-0.5,1.1-1.1,1.5-1.8
		c0.4-0.7,0.6-1.6,0.6-2.5v-10c0-0.4-0.1-0.7-0.4-1C55.7,3.6,55.2,3.5,54.7,3.5z M66.5,13.4C66.5,13.4,66.5,13.4,66.5,13.4l0.5-0.1
		c1.1-0.2,1.9-0.7,2.5-1.5c0.6-0.7,0.9-1.8,0.9-3.2c0-0.9-0.1-1.7-0.4-2.3c-0.2-0.6-0.6-1.1-1.1-1.5c-0.5-0.4-1.1-0.6-1.8-0.8
		c-0.7-0.1-1.5-0.2-2.4-0.2h-3.4c-0.4,0-0.7,0-1,0.1c-0.3,0-0.5,0.1-0.7,0.3c-0.2,0.1-0.3,0.3-0.4,0.6c-0.1,0.2-0.1,0.5-0.1,0.8
		v13.7c0,0.3,0.1,0.6,0.4,1c0.3,0.3,0.7,0.5,1.3,0.5c0.6,0,1-0.1,1.3-0.4c0.3-0.3,0.4-0.6,0.4-1v-5.1l5.6,6.1c0.3,0.3,0.6,0.4,1,0.4
		c0,0,0.1,0,0.1,0c0.5,0,0.9-0.2,1.2-0.6c0.3-0.4,0.5-0.8,0.5-1.2c0-0.5-0.2-0.9-0.5-1.2L66.5,13.4z M62.6,10.5V6.8h2.2
		c0.3,0,0.6,0,0.9,0.1c0.3,0,0.5,0.1,0.7,0.3c0.2,0.1,0.4,0.3,0.5,0.5c0.1,0.2,0.2,0.5,0.2,0.9c0,0.8-0.2,1.3-0.5,1.5
		c-0.4,0.2-1,0.4-1.8,0.4H62.6z M82.5,3.7h-7c-0.5,0-0.9,0.1-1.2,0.3c-0.3,0.2-0.4,0.6-0.4,1.2v14.2c0,0.3,0.1,0.5,0.4,0.8
		c0.3,0.3,0.7,0.4,1.3,0.4c0.6,0,1-0.1,1.3-0.4c0.3-0.3,0.4-0.5,0.4-0.8v-6.1h4.6c0.5,0,0.9-0.1,1.2-0.3c0.3-0.2,0.4-0.6,0.4-1.1
		c0-0.5-0.1-0.9-0.4-1.2c-0.3-0.2-0.7-0.4-1.2-0.4h-4.6V6.7h5.3c0.5,0,0.9-0.1,1.1-0.3C83.9,6.2,84,5.8,84,5.2
		c0-0.5-0.2-0.9-0.4-1.2C83.3,3.8,83,3.7,82.5,3.7z M92.3,4.6C92.2,4.3,92,4,91.8,3.8c-0.3-0.2-0.7-0.3-1.1-0.3
		c-0.5,0-0.8,0.1-1.1,0.3C89.2,4,89,4.3,88.9,4.6l-4.7,14c-0.2,0.7-0.2,1.3,0.2,1.6c0.3,0.3,0.7,0.5,1.3,0.5c0.5,0,0.9-0.1,1.2-0.4
		c0.3-0.2,0.5-0.6,0.6-1l0.9-2.5h4.3l1,2.7c0.1,0.3,0.3,0.6,0.6,0.9c0.3,0.2,0.6,0.4,1.1,0.4l0.1,0c0.5,0,0.9-0.2,1.3-0.5
		c0.3-0.3,0.4-0.8,0.2-1.5L92.3,4.6z M89.2,13.6l1.5-4.8l1.5,4.8H89.2z M111.5,16.2c-0.4-0.2-0.9-0.1-1.3,0.2
		c-0.2,0.2-0.4,0.3-0.6,0.4c-0.2,0.1-0.4,0.3-0.6,0.4c-0.2,0.1-0.5,0.2-0.8,0.3c-0.3,0.1-0.7,0.1-1.1,0.1l-0.1,0
		c-0.7,0-1.4-0.2-1.9-0.5c-0.6-0.3-1.1-0.7-1.5-1.3c-0.4-0.5-0.7-1.2-0.9-1.8c-0.2-0.7-0.3-1.4-0.3-2.2c0-0.7,0.1-1.5,0.3-2.1
		c0.2-0.7,0.5-1.3,0.8-1.8c0.3-0.5,0.8-0.9,1.3-1.2c0.5-0.3,1.1-0.5,1.8-0.5c0.6,0,1.1,0.1,1.5,0.3c0.4,0.2,0.8,0.4,1.1,0.6
		c0.3,0.2,0.6,0.4,0.9,0.5c0.3,0.2,0.7,0.2,1,0c0.2-0.1,0.4-0.2,0.5-0.3c0.1-0.1,0.2-0.2,0.3-0.3c0-0.1,0.1-0.2,0.1-0.3
		c0.1-0.2,0.1-0.4,0-0.6c0-0.3-0.2-0.6-0.5-0.9c-0.3-0.3-0.6-0.7-1.1-1c-0.5-0.3-1-0.5-1.7-0.7c-0.6-0.2-1.3-0.3-2.1-0.3
		c-1.1,0-2.1,0.2-3,0.6c-0.9,0.4-1.7,1-2.4,1.7c-0.7,0.7-1.2,1.7-1.6,2.7c-0.4,1.1-0.6,2.3-0.6,3.7c0,1.4,0.2,2.6,0.6,3.7
		c0.4,1.1,1,2,1.7,2.8c0.7,0.8,1.6,1.3,2.6,1.7c1,0.4,2.1,0.6,3.2,0.6c0.8,0,1.5-0.1,2.2-0.3c0.6-0.2,1.2-0.5,1.6-0.8
		c0.5-0.3,0.8-0.6,1.1-1c0.3-0.3,0.4-0.6,0.4-0.9c0-0.3,0-0.6-0.2-0.9C112.2,16.6,111.9,16.4,111.5,16.2z M123.7,17.3h-5.3v-4h5
		c0.5,0,0.9-0.1,1.2-0.3c0.3-0.2,0.4-0.6,0.4-1.1c0-0.5-0.1-0.9-0.4-1.2c-0.3-0.2-0.7-0.4-1.2-0.4h-5V6.7h5.3c0.5,0,0.9-0.1,1.1-0.3
		c0.3-0.2,0.4-0.6,0.4-1.2c0-0.5-0.2-0.9-0.4-1.2c-0.3-0.2-0.6-0.3-1.1-0.3h-7c-0.5,0-0.9,0.1-1.2,0.3c-0.3,0.2-0.4,0.6-0.4,1.2
		v13.6c0,0.6,0.2,1,0.5,1.2c0.3,0.2,0.7,0.3,1.2,0.3h7c0.6,0,1.1-0.1,1.3-0.3c0.3-0.2,0.4-0.6,0.4-1.2c0-0.6-0.2-1-0.4-1.2
		C124.7,17.4,124.3,17.3,123.7,17.3z M135.2,3.7H133c-0.4,0-0.7,0.1-0.8,0.4c-0.2,0.3-0.3,0.7-0.3,1.3c0,0.6,0.1,1,0.2,1.3
		c0.1,0.2,0.3,0.4,0.8,0.4h0.9v12.3c0,0.5,0.3,1.1,1.6,1.1c1.4,0,1.6-0.6,1.6-1.1V5.2C137,4.5,136.7,3.7,135.2,3.7z"/>
</g>
</svg>
