<?xml version="1.0" encoding="utf-8"?>
<!-- Generator: Adobe Illustrator 19.2.0, SVG Export Plug-In . SVG Version: 6.00 Build 0)  -->
<svg version="1.1" baseProfile="tiny" id="Слой_1"
	 xmlns="http://www.w3.org/2000/svg" xmlns:xlink="http://www.w3.org/1999/xlink" x="0px" y="0px" viewBox="0 0 302 248"
	 xml:space="preserve">
<g>
	<path fill="none" d="M293,249c-96,0-192,0-288,0.1c-3.4,0-4.1-0.7-4.1-4.1C1,165,1,85,0.9,5c0-3.4,0.7-4.1,4.1-4.1
		C81.7,1,158.3,1,235,1c0,1.9-1.5,1.9-2.7,2.4c-9.5,4.4-14.2,13.3-12.2,23.2c1.6,8.3,10.1,15,19.8,15.3c3.8,0.1,4.4,1.2,3.4,4.8
		c-2.7,9.5-8,17.5-13.4,25.5c-1.6,2.3-3.1,1.4-4.6,0.5c-3-1.8-6-3.6-9.6-3.9c-6.5-0.5-12.6-1.5-17.3-6.9c-1.4-1.6-4.2-2.5-6.4-2.6
		c-6.4-0.3-12.6-0.8-18.8-3.1c-2.7-1-4-1.9-5.3-4.3c-3.3-6.6-1.8-12.9,0.2-19.3c2.6-8.3-1.1-16-9.1-19c-3.2-1.2-6.6-0.5-9.9-0.6
		c-4.9-0.1-10.3,3.3-11.5,7.9c-2.2,8.1-4.7,16.4-0.4,24.7c1.7,3.3,0.1,5.1-3,6c-2.3,0.6-4.6,0.4-6.9-0.3c-7.1-2.4-14-2-20.7,1.7
		c-1.7,1-3.5,1.9-5.6,2c-19.8,1-38.9,5.2-57.4,12.8c-5.9,2.4-12.2,5-19.2,4c-6.2-0.9-12.5-1.2-18.8-1.8c-0.4,0-1.1,0-1.1,0.7
		C5,72,6.5,71.6,7,72.5c-0.8,1.3-3-0.4-3.5,1.6c2.4,2.5,5.8,1.4,9,2.3c-0.8,1.3-1.7,1.4-2.7,1.6c-1.2,0.2-3.4-0.6-3.2,1.2
		c0.2,2.2,2.3,1.8,4,1.4c2.2-0.5,4.5-0.8,7.3-1.4c-1.1,2.2-2.4,2.4-3.6,2.8c-1,0.3-2.1,0.8-1.7,2c0.4,1.2,1.7,0.9,2.6,0.7
		c1.6-0.5,3.2-0.9,4.7-1.7c3.6-1.9,4.5-0.4,4.2,3c-0.1,1.3,0.2,2.7-0.6,3.9c-0.7,1.1-2.1,2.3-0.3,3.3c1.3,0.7,1.9-0.9,2.7-1.6
		c0.7-0.6,1.5-1.4,1.9-2.3c3.9-8.5,11.2-10.9,19.9-11.4c7.2-0.5,14.5-1.2,21.6-2.7c7-1.4,14.6-0.8,21-5c1.1-0.7,2.9-0.2,4.4-0.2
		c5.5-0.2,10.9,0.3,16.4-0.8c3.4-0.7,7.7-1.5,9.9,2.5c3.4,6.1,6,12.5,4.9,19.9c-2.3,16.5-0.5,32.4,7,47.4c2.6,5.3,4.1,10.5,2.2,16.8
		c-2,6.4-1.7,13.4-3,20c-2.5,12.5-2.6,25.1-1.9,37.7c0.3,5.6,1.6,11.5,3.8,16.9c2.3,5.7,6.3,9,9.8,8.1c5.5-1.5,10.3-4.2,15-7.6
		c10.1-7.3,20.5-13.9,30.9-20.7c3.5-2.3,6.8-2.3,10.3,0.9c1.9,1.7,3.6,5.1,6.8,4.3c2.8-0.7,4.5,0.3,6.4,1.6c6.9,5.1,14.5,6.3,22.7,4
		c6.6-1.9,13.4-2,20.1-2.9c4.4-0.6,9.1-0.8,11.4,4.6c0.4,0.9,1.6,1.8,2.7,2.1C281.9,228.8,286,240.3,293,249z"/>
	<path fill="#E0E1E3" d="M293,249c-7-8.7-11.1-20.2-23-24.2c-1-0.3-2.3-1.2-2.7-2.1c-2.3-5.3-7-5.2-11.4-4.6
		c-6.7,0.9-13.5,1.1-20.1,2.9c-8.2,2.3-15.7,1.1-22.7-4c-1.9-1.4-3.6-2.3-6.4-1.6c-3.1,0.8-4.8-2.6-6.8-4.3
		c-3.6-3.1-6.8-3.2-10.3-0.9c-10.4,6.8-20.8,13.5-30.9,20.7c-4.7,3.4-9.5,6.1-15,7.6c-3.5,1-7.5-2.4-9.8-8.1
		c-2.2-5.4-3.4-11.3-3.8-16.9c-0.7-12.6-0.6-25.2,1.9-37.7c1.3-6.6,1-13.7,3-20c2-6.3,0.5-11.5-2.2-16.8c-7.6-15.1-9.4-31-7-47.4
		c1.1-7.4-1.5-13.8-4.9-19.9c-2.2-4-6.6-3.2-9.9-2.5c-5.5,1.1-10.9,0.6-16.4,0.8c-1.5,0.1-3.4-0.5-4.4,0.2c-6.4,4.3-14,3.6-21,5
		c-7.1,1.5-14.4,2.2-21.6,2.7c-8.6,0.6-15.9,2.9-19.9,11.4c-0.4,0.9-1.2,1.6-1.9,2.3c-0.8,0.7-1.4,2.4-2.7,1.6
		c-1.8-1-0.4-2.3,0.3-3.3c0.8-1.2,0.5-2.6,0.6-3.9c0.2-3.3-0.7-4.9-4.2-3c-1.4,0.8-3.1,1.3-4.7,1.7c-0.9,0.3-2.2,0.6-2.6-0.7
		c-0.4-1.2,0.7-1.7,1.7-2c1.2-0.4,2.6-0.6,3.6-2.8c-2.8,0.5-5,0.9-7.3,1.4c-1.7,0.3-3.8,0.8-4-1.4c-0.2-1.9,2-1.1,3.2-1.2
		c1-0.1,1.9-0.3,2.7-1.6c-3.1-0.9-6.5,0.1-9-2.3c0.5-2,2.7-0.3,3.5-1.6c-0.5-0.9-2-0.5-2.2-1.8C4.8,70,5.5,70,5.9,70
		c6.3,0.5,12.5,0.9,18.8,1.8c6.9,1,13.3-1.6,19.2-4c18.5-7.6,37.6-11.7,57.4-12.8c2.1-0.1,3.9-1,5.6-2c6.7-3.7,13.6-4.1,20.7-1.7
		c2.3,0.8,4.6,1,6.9,0.3c3-0.9,4.7-2.7,3-6c-4.4-8.3-1.8-16.6,0.4-24.7c1.3-4.7,6.7-8,11.5-7.9c3.3,0.1,6.7-0.6,9.9,0.6
		c7.9,2.9,11.7,10.7,9.1,19c-2,6.4-3.5,12.8-0.2,19.3c1.2,2.4,2.6,3.4,5.3,4.3c6.2,2.3,12.4,2.8,18.8,3.1c2.2,0.1,5,1,6.4,2.6
		c4.7,5.3,10.8,6.4,17.3,6.9c3.6,0.3,6.6,2.1,9.6,3.9c1.6,0.9,3.1,1.8,4.6-0.5c5.4-8,10.7-16,13.4-25.5c1-3.6,0.4-4.7-3.4-4.8
		c-9.8-0.3-18.2-7-19.8-15.3c-2-9.9,2.7-18.8,12.2-23.2c1.2-0.5,2.7-0.5,2.7-2.4c3.3,0,6.7,0,10,0c0.2,2.4,2.4,2.5,3.9,3.4
		c6.3,4,10,9.1,10.3,17c0.2,5.4-3.3,9.4-4,14.2c-2.5,16.6-5.8,32.9-12.1,48.5c-1.2,2.9-2.7,4.9-6,4.9c-13.2-0.3-26.7,1.9-39-5.4
		c-2-1.2-4.5-1.3-5.9,0.8c-2.5,3.9-7.5,7.3-3.5,13.1c0.4,0.6,0.5,1.8,0.1,2.4c-3.7,7.1-3.8,14.9-5.1,22.5c-0.8,4.8,1,8.6,5.3,10.3
		c1.5,0.6,2.6,1.3,3.6,2.5c5.1,6.4,6.3,14.8,11.1,21.4c0.4,0.6,0.4,1.7,0.1,2.4c-0.9,1.9,0.1,3,1.1,4.4c3.8,5.4,9,9.7,11.7,15.9
		c2.2,5,4.6,9.9,7,14.8c1.7,3.3,3.6,5.2,8.2,4.2c5.4-1.1,11.1-1.2,16.5,1.6c4.4,2.3,9.3,3.5,14,5.2c3.2,1.2,5.8,0.9,8.6-1.6
		c5.6-5.1,8.6-4.7,14,0.8c2,2,3.1,4.4,3.6,7c1.7,8.4,10.6,11.8,13.4,19.4c0.1,0.1,0.6,0.1,1,0.2c0,4.3,0,8.7,0,13
		c-2.5,0.7-3.4,2.7-4,5C297,249,295,249,293,249z M177.7,201.2c-2.5-1.5-4.7-2.1-7-2.2c-1.8,0-2.7,0.9-3.3,2.4c-0.4,1-0.6,2,0.1,2.8
		c1.2,1.4,2.4,0.3,3.6-0.1C173.2,203.4,175.6,203.1,177.7,201.2z"/>
	<path fill="none" d="M303,231c-0.3,0-0.9,0-1-0.2c-2.9-7.6-11.7-11-13.4-19.4c-0.5-2.6-1.6-5-3.6-7c-5.3-5.5-8.4-5.9-14-0.8
		c-2.8,2.5-5.4,2.9-8.6,1.6c-4.7-1.8-9.6-3-14-5.2c-5.4-2.8-11.1-2.7-16.5-1.6c-4.6,0.9-6.6-0.9-8.2-4.2c-2.4-4.9-4.8-9.8-7-14.8
		c-2.8-6.2-7.9-10.5-11.7-15.9c-1-1.4-2-2.5-1.1-4.4c0.3-0.6,0.3-1.8-0.1-2.4c-4.8-6.6-5.9-15-11.1-21.4c-1-1.2-2.2-1.9-3.6-2.5
		c-4.3-1.7-6.1-5.6-5.3-10.3c1.3-7.6,1.4-15.4,5.1-22.5c0.3-0.6,0.3-1.8-0.1-2.4c-4-5.8,1-9.2,3.5-13.1c1.4-2.1,3.9-2,5.9-0.8
		c12.3,7.3,25.8,5.1,39,5.4c3.3,0.1,4.8-1.9,6-4.9c6.3-15.6,9.6-31.9,12.1-48.5c0.7-4.8,4.2-8.7,4-14.2c-0.3-7.9-4.1-13-10.3-17
		c-1.5-0.9-3.7-1-3.9-3.4c17.8,0,35.6,0.1,53.4-0.1c3.6,0,4.7,0.5,4.7,4.5C303,80.6,303,155.8,303,231z"/>
	<path fill="none" d="M299,249c0.6-2.3,1.5-4.3,4-5C303,246.7,303.9,250.2,299,249z"/>
	<path fill="none" d="M177.7,201.2c-2.2,2-4.5,2.2-6.7,2.9c-1.1,0.4-2.4,1.6-3.6,0.1c-0.7-0.8-0.4-1.9-0.1-2.8
		c0.6-1.5,1.5-2.4,3.3-2.4C173.1,199,175.2,199.7,177.7,201.2z"/>
</g>
</svg>
